<svg xmlns="http://www.w3.org/2000/svg" viewBox="0 0 32 32" fill="none">
  <!-- Dark background -->
  <rect width="32" height="32" rx="7" fill="#020817"/>
  <!-- Gear shape in indigo -->
  <path
    fill="#6366f1"
    d="M16 10.5a5.5 5.5 0 1 0 0 11 5.5 5.5 0 0 0 0-11Zm0 8.5a3 3 0 1 1 0-6 3 3 0 0 1 0 6Z"
  />
  <path
    fill="#6366f1"
    d="M27.3 13.7l-1.6-.3a9.8 9.8 0 0 0-.8-1.9l1-1.3a1 1 0 0 0-.1-1.3l-2.7-2.7a1 1 0 0 0-1.3-.1l-1.3 1a9.8 9.8 0 0 0-1.9-.8l-.3-1.6A1 1 0 0 0 17.3 4h-2.6a1 1 0 0 0-1 .7l-.3 1.6a9.8 9.8 0 0 0-1.9.8l-1.3-1a1 1 0 0 0-1.3.1L6.2 8.9a1 1 0 0 0-.1 1.3l1 1.3a9.8 9.8 0 0 0-.8 1.9l-1.6.3A1 1 0 0 0 4 14.7v2.6a1 1 0 0 0 .7 1l1.6.3a9.8 9.8 0 0 0 .8 1.9l-1 1.3a1 1 0 0 0 .1 1.3l2.7 2.7a1 1 0 0 0 1.3.1l1.3-1a9.8 9.8 0 0 0 1.9.8l.3 1.6a1 1 0 0 0 1 .7h2.6a1 1 0 0 0 1-.7l.3-1.6a9.8 9.8 0 0 0 1.9-.8l1.3 1a1 1 0 0 0 1.3-.1l2.7-2.7a1 1 0 0 0 .1-1.3l-1-1.3a9.8 9.8 0 0 0 .8-1.9l1.6-.3a1 1 0 0 0 .7-1v-2.6a1 1 0 0 0-.7-1ZM16 21.5a5.5 5.5 0 1 1 0-11 5.5 5.5 0 0 1 0 11Z"
  />
</svg>
